<svg xmlns="http://www.w3.org/2000/svg" xmlns:xlink="http://www.w3.org/1999/xlink" contentStyleType="text/css" data-diagram-type="STATE" height="560px" preserveAspectRatio="none" style="width:432px;height:560px;background:#FFFFFF;" version="1.1" viewBox="0 0 432 560" width="432px" zoomAndPan="magnify"><defs/><g><!--cluster ml4floods--><g class="cluster" data-entity="ml4floods" data-source-line="12" data-uid="ent0002" id="cluster_ml4floods"><path d="M19.5,104 L406.5,104 A12.5,12.5 0 0 1 419,116.5 L419,125.2969 L7,125.2969 L7,116.5 A12.5,12.5 0 0 1 19.5,104" fill="#F1F1F1"/><rect fill="none" height="350.72" rx="12.5" ry="12.5" style="stroke:#181818;stroke-width:0.5;" width="412" x="7" y="104"/><line style="stroke:#181818;stroke-width:0.5;" x1="7" x2="419" y1="125.2969" y2="125.2969"/><text fill="#000000" font-family="sans-serif" font-size="14" lengthAdjust="spacing" textLength="68.5645" x="178.7178" y="121.9951">ml4floods</text></g><!--cluster inference--><g class="cluster" data-entity="inference" data-source-line="33" data-uid="ent0006" id="cluster_inference"><path d="M126.5,202 L376,202 A12.5,12.5 0 0 1 388.5,214.5 L388.5,223.2969 L114,223.2969 L114,214.5 A12.5,12.5 0 0 1 126.5,202" fill="#F1F1F1"/><rect fill="none" height="156.72" rx="12.5" ry="12.5" style="stroke:#181818;stroke-width:0.5;" width="274.5" x="114" y="202"/><line style="stroke:#181818;stroke-width:0.5;" x1="114" x2="388.5" y1="223.2969" y2="223.2969"/><text fill="#000000" font-family="sans-serif" font-size="14" lengthAdjust="spacing" textLength="65.8574" x="218.3213" y="219.9951">inference</text></g><text fill="#000000" font-family="sans-serif" font-size="14" lengthAdjust="spacing" textLength="72.6934" x="333.1533" y="82.6982">input-item</text><ellipse cx="369.5" cy="104" fill="#F1F1F1" rx="6" ry="6" style="stroke:#181818;stroke-width:1.5;"/><text fill="#000000" font-family="sans-serif" font-size="14" lengthAdjust="spacing" textLength="111.1797" x="212.9102" y="82.6982">water-threshold</text><ellipse cx="268.5" cy="104" fill="#F1F1F1" rx="6" ry="6" style="stroke:#181818;stroke-width:1.5;"/><text fill="#000000" font-family="sans-serif" font-size="14" lengthAdjust="spacing" textLength="145.1475" x="59.9263" y="82.6982">brightness-threshold</text><ellipse cx="132.5" cy="104" fill="#F1F1F1" rx="6" ry="6" style="stroke:#181818;stroke-width:1.5;"/><text fill="#000000" font-family="sans-serif" font-size="14" lengthAdjust="spacing" textLength="118.0498" x="174.9751" y="473.7151">flood-delineation</text><ellipse cx="234" cy="454.72" fill="#F1F1F1" rx="6" ry="6" style="stroke:#181818;stroke-width:1.5;"/><line style="stroke:#181818;stroke-width:1.5;" x1="238.3891" x2="230.6109" y1="459.1091" y2="451.3309"/><line style="stroke:#181818;stroke-width:1.5;" x1="238.3891" x2="230.6109" y1="451.3309" y2="459.1091"/><text fill="#000000" font-family="sans-serif" font-size="14" lengthAdjust="spacing" textLength="74.6416" x="333.1792" y="180.6982">input_item</text><ellipse cx="370.5" cy="202" fill="#F1F1F1" rx="6" ry="6" style="stroke:#181818;stroke-width:1.5;"/><text fill="#000000" font-family="sans-serif" font-size="14" lengthAdjust="spacing" textLength="113.1279" x="211.936" y="180.6982">water_threshold</text><ellipse cx="268.5" cy="202" fill="#F1F1F1" rx="6" ry="6" style="stroke:#181818;stroke-width:1.5;"/><text fill="#000000" font-family="sans-serif" font-size="14" lengthAdjust="spacing" textLength="147.0957" x="58.4521" y="180.6982">brightness_threshold</text><ellipse cx="132" cy="202" fill="#F1F1F1" rx="6" ry="6" style="stroke:#181818;stroke-width:1.5;"/><text fill="#000000" font-family="sans-serif" font-size="14" lengthAdjust="spacing" textLength="118.0498" x="174.9751" y="377.7151">flood-delineation</text><ellipse cx="234" cy="358.72" fill="#F1F1F1" rx="6" ry="6" style="stroke:#181818;stroke-width:1.5;"/><line style="stroke:#181818;stroke-width:1.5;" x1="238.3891" x2="230.6109" y1="363.1091" y2="355.3309"/><line style="stroke:#181818;stroke-width:1.5;" x1="238.3891" x2="230.6109" y1="355.3309" y2="363.1091"/><ellipse cx="269" cy="16" fill="#222222" rx="10" ry="10" style="stroke:#222222;stroke-width:1;"/><ellipse cx="234" cy="543.72" fill="none" rx="11" ry="11" style="stroke:#222222;stroke-width:1;"/><ellipse cx="234" cy="543.72" fill="#222222" rx="6" ry="6" style="stroke:#222222;stroke-width:1;"/><!--link ml4floods_input_item to inference_input_item--><g class="link" data-entity-1="ml4floods_input_item" data-entity-2="inference_input_item" data-source-line="38" data-uid="lnk2" id="link_ml4floods_input_item_inference_input_item"><path d="M370.05,110.16 C370.23,126.83 370.7053,173.1103 370.8853,189.8103" fill="none" id="ml4floods_input_item-to-inference_input_item" style="stroke:#181818;stroke-width:1;"/><polygon fill="#181818" points="370.95,195.81,374.8528,186.7674,370.8961,190.8103,366.8532,186.8536,370.95,195.81" style="stroke:#181818;stroke-width:1;"/></g><!--link ml4floods_water_threshold to inference_water_threshold--><g class="link" data-entity-1="ml4floods_water_threshold" data-entity-2="inference_water_threshold" data-source-line="44" data-uid="lnk3" id="link_ml4floods_water_threshold_inference_water_threshold"><path d="M269,110.16 C269,126.83 269,173.11 269,189.81" fill="none" id="ml4floods_water_threshold-to-inference_water_threshold" style="stroke:#181818;stroke-width:1;"/><polygon fill="#181818" points="269,195.81,273,186.81,269,190.81,265,186.81,269,195.81" style="stroke:#181818;stroke-width:1;"/></g><!--link ml4floods_brightness_threshold to inference_brightness_threshold--><g class="link" data-entity-1="ml4floods_brightness_threshold" data-entity-2="inference_brightness_threshold" data-source-line="50" data-uid="lnk4" id="link_ml4floods_brightness_threshold_inference_brightness_threshold"><path d="M132.95,110.16 C132.77,126.83 132.2947,173.1103 132.1147,189.8103" fill="none" id="ml4floods_brightness_threshold-to-inference_brightness_threshold" style="stroke:#181818;stroke-width:1;"/><polygon fill="#181818" points="132.05,195.81,136.1468,186.8536,132.1039,190.8103,128.1472,186.7674,132.05,195.81" style="stroke:#181818;stroke-width:1;"/></g><!--link inference_flood_delineation to ml4floods_flood_delineation--><g class="link" data-entity-1="inference_flood_delineation" data-entity-2="ml4floods_flood_delineation" data-source-line="65" data-uid="lnk5" id="link_inference_flood_delineation_ml4floods_flood_delineation"><path d="M234,364.77 C234,381.1 234,426.28 234,442.64" fill="none" id="inference_flood_delineation-to-ml4floods_flood_delineation" style="stroke:#181818;stroke-width:1;"/><polygon fill="#181818" points="234,448.64,238,439.64,234,443.64,230,439.64,234,448.64" style="stroke:#181818;stroke-width:1;"/></g><!--link *start* to ml4floods_input_item--><g class="link" data-entity-1=".start." data-entity-2="ml4floods_input_item" data-source-line="70" data-uid="lnk7" id="link_.start._ml4floods_input_item"><path d="M276.26,23.18 C295.26,39.36 341.6012,78.8208 359.2812,93.8708" fill="none" id="*start*-to-ml4floods_input_item" style="stroke:#181818;stroke-width:1;"/><polygon fill="#181818" points="363.85,97.76,359.5895,88.8803,360.0426,94.519,354.404,94.9721,363.85,97.76" style="stroke:#181818;stroke-width:1;"/></g><!--link *start* to ml4floods_water_threshold--><g class="link" data-entity-1=".start." data-entity-2="ml4floods_water_threshold" data-source-line="72" data-uid="lnk8" id="link_.start._ml4floods_water_threshold"><path d="M269,26.2 C269,44.23 269,77.66 269,91.81" fill="none" id="*start*-to-ml4floods_water_threshold" style="stroke:#181818;stroke-width:1;"/><polygon fill="#181818" points="269,97.81,273,88.81,269,92.81,265,88.81,269,97.81" style="stroke:#181818;stroke-width:1;"/></g><!--link *start* to ml4floods_brightness_threshold--><g class="link" data-entity-1=".start." data-entity-2="ml4floods_brightness_threshold" data-source-line="74" data-uid="lnk9" id="link_.start._ml4floods_brightness_threshold"><path d="M260.9,22.12 C235.85,37.96 165.1318,82.6843 143.7418,96.2043" fill="none" id="*start*-to-ml4floods_brightness_threshold" style="stroke:#181818;stroke-width:1;"/><polygon fill="#181818" points="138.67,99.41,148.4149,97.9826,142.8965,96.7385,144.1405,91.2202,138.67,99.41" style="stroke:#181818;stroke-width:1;"/></g><!--link ml4floods_flood_delineation to *end*--><g class="link" data-entity-1="ml4floods_flood_delineation" data-entity-2=".end." data-source-line="78" data-uid="lnk11" id="link_ml4floods_flood_delineation_.end."><path d="M234,460.9 C234,474.95 234,507.95 234,526.57" fill="none" id="ml4floods_flood_delineation-to-*end*" style="stroke:#181818;stroke-width:1;"/><polygon fill="#181818" points="234,532.57,238,523.57,234,527.57,230,523.57,234,532.57" style="stroke:#181818;stroke-width:1;"/></g><!--SRC=[hLJHQi8m57tlLrny4GRHMaMSY4_xW3tiROnIxTK6chGaSKx6_drD9pNDOfe7Gocqv-JSU-v9Enr7C8ONcXr5nk2874McC8VT1VRdCgbFh8JFU39F9h4cAifGgepLQqZYP4dY6KcIjzbolPYluzLazRniMDCeAcYEWAnM5yXHxWMj5QrurAvclq8OiN9nAAigboF897HFy1r1izhRbKbvVLA4AcHzQje2gGPWiq6knEMrebnjj_yapirT45K8b4LLvfPEYwOTEYIs4_HOA8vItbMyKGPa8trPw_wB1oE6ASeFA93lyJh_7j7C8UrowBOCvE3lofac8LkdV82U6NZQZ-Uc611uQDUsLBzr2mtlttM0B1EXPopKYLElRyT56JfVBdTjHP9ZIJbc-izWMMlnrC2rho-gR5j_5NxwTOootd8tvw7bEbrVftfY7cdFk0mVxqyVbf3Z8t2mxfqt1zMRfJ53tvYqOgFy2m00]--></g></svg>