<svg xmlns="http://www.w3.org/2000/svg" xmlns:xlink="http://www.w3.org/1999/xlink" contentStyleType="text/css" data-diagram-type="CLASS" height="1122px" preserveAspectRatio="none" style="width:898px;height:1122px;background:#FFFFFF;" version="1.1" viewBox="0 0 898 1122" width="898px" zoomAndPan="magnify"><defs/><g><!--cluster ML4Floods inference for flood extent estimation--><g class="cluster" data-entity="ML4Floods inference for flood extent estimation" data-source-line="13" data-uid="ent0002" id="cluster_ML4Floods inference for flood extent estimation"><path d="M8.5,6 L391.4922,6 A3.75,3.75 0 0 1 393.9922,8.5 L400.9922,28.2969 L888.5,28.2969 A2.5,2.5 0 0 1 891,30.7969 L891,1112.5 A2.5,2.5 0 0 1 888.5,1115 L8.5,1115 A2.5,2.5 0 0 1 6,1112.5 L6,8.5 A2.5,2.5 0 0 1 8.5,6" fill="none" style="stroke:#000000;stroke-width:1.5;"/><line style="stroke:#000000;stroke-width:1.5;" x1="6" x2="400.9922" y1="28.2969" y2="28.2969"/><text fill="#000000" font-family="sans-serif" font-size="14" font-weight="bold" lengthAdjust="spacing" textLength="381.9922" x="10" y="20.9951">ML4Floods inference for flood extent estimation</text></g><!--cluster Steps--><g class="cluster" data-entity="Steps" data-source-line="53" data-uid="ent0006" id="cluster_Steps"><path d="M581.5,328 L627.125,328 A3.75,3.75 0 0 1 629.625,330.5 L636.625,350.2969 L864.5,350.2969 A2.5,2.5 0 0 1 867,352.7969 L867,1088.5 A2.5,2.5 0 0 1 864.5,1091 L581.5,1091 A2.5,2.5 0 0 1 579,1088.5 L579,330.5 A2.5,2.5 0 0 1 581.5,328" fill="none" style="stroke:#000000;stroke-width:1.5;"/><line style="stroke:#000000;stroke-width:1.5;" x1="579" x2="636.625" y1="350.2969" y2="350.2969"/><text fill="#000000" font-family="sans-serif" font-size="14" font-weight="bold" lengthAdjust="spacing" textLength="44.625" x="583" y="342.9951">Steps</text></g><!--cluster Requirements--><g class="cluster" data-entity="Requirements" data-source-line="98" data-uid="ent0011" id="cluster_Requirements"><path d="M32.5,821 L144.0371,821 A3.75,3.75 0 0 1 146.5371,823.5 L153.5371,843.2969 L552.5,843.2969 A2.5,2.5 0 0 1 555,845.7969 L555,917.5 A2.5,2.5 0 0 1 552.5,920 L32.5,920 A2.5,2.5 0 0 1 30,917.5 L30,823.5 A2.5,2.5 0 0 1 32.5,821" fill="none" style="stroke:#000000;stroke-width:1.5;"/><line style="stroke:#000000;stroke-width:1.5;" x1="30" x2="153.5371" y1="843.2969" y2="843.2969"/><text fill="#000000" font-family="sans-serif" font-size="14" font-weight="bold" lengthAdjust="spacing" textLength="110.5371" x="34" y="835.9951">Requirements</text></g><!--class Workflow_ml4floods--><g class="entity" data-entity="Workflow_ml4floods" data-source-line="15" data-uid="ent0003" id="entity_Workflow_ml4floods"><rect fill="#F1F1F1" height="475.7188" rx="2.5" ry="2.5" style="stroke:#181818;stroke-width:0.5;" width="309.0762" x="254.5" y="149"/><ellipse cx="365.0059" cy="165" fill="#ADD1B2" rx="11" ry="11" style="stroke:#181818;stroke-width:1;"/><path d="M367.9746,170.6406 Q367.3965,170.9375 366.7559,171.0781 Q366.1152,171.2344 365.4121,171.2344 Q362.9121,171.2344 361.584,169.5938 Q360.2715,167.9375 360.2715,164.8125 Q360.2715,161.6875 361.584,160.0313 Q362.9121,158.375 365.4121,158.375 Q366.1152,158.375 366.7559,158.5313 Q367.4121,158.6875 367.9746,158.9844 L367.9746,161.7031 Q367.3496,161.125 366.7559,160.8594 Q366.1621,160.5781 365.5371,160.5781 Q364.1934,160.5781 363.5059,161.6563 Q362.8184,162.7188 362.8184,164.8125 Q362.8184,166.9063 363.5059,167.9844 Q364.1934,169.0469 365.5371,169.0469 Q366.1621,169.0469 366.7559,168.7813 Q367.3496,168.5 367.9746,167.9219 L367.9746,170.6406 Z " fill="#000000"/><ellipse cx="390.5059" cy="164.5" fill="#84BE84" rx="3" ry="3" style="stroke:#038048;stroke-width:1;"/><text fill="#000000" font-family="sans-serif" font-size="14" lengthAdjust="spacing" textLength="68.5645" x="396.5059" y="169.8467">ml4floods</text><line style="stroke:#181818;stroke-width:0.5;" x1="255.5" x2="562.5762" y1="181" y2="181"/><text fill="#000000" font-family="sans-serif" font-size="14" lengthAdjust="spacing" textLength="4.4502" x="274.5" y="218.292">&#160;</text><text fill="#000000" font-family="sans-serif" font-size="14" lengthAdjust="spacing" textLength="4.4502" x="274.5" y="234.5889">&#160;</text><ellipse cx="265.5" cy="247.5391" fill="none" rx="3" ry="3" style="stroke:#038048;stroke-width:1;"/><text fill="#000000" font-family="sans-serif" font-size="14" lengthAdjust="spacing" textLength="122.0488" x="274.5" y="250.8857">input-item: string</text><text fill="#000000" font-family="sans-serif" font-size="14" lengthAdjust="spacing" textLength="4.4502" x="274.5" y="267.1826">&#160;</text><text fill="#000000" font-family="sans-serif" font-size="14" lengthAdjust="spacing" textLength="4.4502" x="274.5" y="283.4795">&#160;</text><text fill="#000000" font-family="sans-serif" font-size="14" lengthAdjust="spacing" textLength="4.4502" x="274.5" y="299.7764">&#160;</text><ellipse cx="265.5" cy="312.7266" fill="none" rx="3" ry="3" style="stroke:#038048;stroke-width:1;"/><text fill="#000000" font-family="sans-serif" font-size="14" lengthAdjust="spacing" textLength="248.9443" x="274.5" y="316.0732">water-threshold: [ null, float ] = 0.7</text><text fill="#000000" font-family="sans-serif" font-size="14" lengthAdjust="spacing" textLength="4.4502" x="274.5" y="332.3701">&#160;</text><text fill="#000000" font-family="sans-serif" font-size="14" lengthAdjust="spacing" textLength="4.4502" x="274.5" y="348.667">&#160;</text><text fill="#000000" font-family="sans-serif" font-size="14" lengthAdjust="spacing" textLength="4.4502" x="274.5" y="364.9639">&#160;</text><ellipse cx="265.5" cy="377.9141" fill="none" rx="3" ry="3" style="stroke:#038048;stroke-width:1;"/><text fill="#000000" font-family="sans-serif" font-size="14" lengthAdjust="spacing" textLength="283.0762" x="274.5" y="381.2607">brightness-threshold: [ null, int ] = 3500</text><text fill="#000000" font-family="sans-serif" font-size="14" lengthAdjust="spacing" textLength="4.4502" x="274.5" y="397.5576">&#160;</text><text fill="#000000" font-family="sans-serif" font-size="14" lengthAdjust="spacing" textLength="4.4502" x="274.5" y="413.8545">&#160;</text><text fill="#000000" font-family="sans-serif" font-size="14" lengthAdjust="spacing" textLength="4.4502" x="274.5" y="430.1514">&#160;</text><line style="stroke:#181818;stroke-width:0.5;" x1="255.5" x2="387.2656" y1="197.1484" y2="197.1484"/><text fill="#000000" font-family="sans-serif" font-size="14" lengthAdjust="spacing" textLength="43.5449" x="387.2656" y="201.4951">Inputs</text><line style="stroke:#181818;stroke-width:0.5;" x1="430.8105" x2="562.5762" y1="197.1484" y2="197.1484"/><text fill="#000000" font-family="sans-serif" font-size="14" lengthAdjust="spacing" textLength="4.4502" x="274.5" y="466.7451">&#160;</text><ellipse cx="265.5" cy="479.6953" fill="none" rx="3" ry="3" style="stroke:#038048;stroke-width:1;"/><text fill="#000000" font-family="sans-serif" font-size="14" lengthAdjust="spacing" textLength="192.0488" x="274.5" y="483.042">flood-delineation: Directory</text><text fill="#000000" font-family="sans-serif" font-size="14" lengthAdjust="spacing" textLength="4.4502" x="274.5" y="499.3389">&#160;</text><text fill="#000000" font-family="sans-serif" font-size="14" lengthAdjust="spacing" textLength="4.4502" x="274.5" y="515.6357">&#160;</text><text fill="#000000" font-family="sans-serif" font-size="14" lengthAdjust="spacing" textLength="4.4502" x="274.5" y="531.9326">&#160;</text><line style="stroke:#181818;stroke-width:0.5;" x1="255.5" x2="381.0757" y1="445.6016" y2="445.6016"/><text fill="#000000" font-family="sans-serif" font-size="14" lengthAdjust="spacing" textLength="55.9248" x="381.0757" y="449.9482">Outputs</text><line style="stroke:#181818;stroke-width:0.5;" x1="437.0005" x2="562.5762" y1="445.6016" y2="445.6016"/><text fill="#000000" font-family="sans-serif" font-size="14" lengthAdjust="spacing" textLength="4.4502" x="274.5" y="568.5264">&#160;</text><rect fill="none" height="6" style="stroke:#C82930;stroke-width:1;" width="6" x="262.5" y="578.4766"/><text fill="#000000" font-family="sans-serif" font-size="14" lengthAdjust="spacing" textLength="166.0654" x="274.5" y="584.8232">inference: ml4floods_cli</text><text fill="#000000" font-family="sans-serif" font-size="14" lengthAdjust="spacing" textLength="4.4502" x="274.5" y="601.1201">&#160;</text><text fill="#000000" font-family="sans-serif" font-size="14" lengthAdjust="spacing" textLength="4.4502" x="274.5" y="617.417">&#160;</text><line style="stroke:#181818;stroke-width:0.5;" x1="255.5" x2="389.4531" y1="547.3828" y2="547.3828"/><text fill="#000000" font-family="sans-serif" font-size="14" lengthAdjust="spacing" textLength="39.1699" x="389.4531" y="551.7295">Steps</text><line style="stroke:#181818;stroke-width:0.5;" x1="428.623" x2="562.5762" y1="547.3828" y2="547.3828"/></g><!--class Workflow--><g class="entity" data-entity="Workflow" data-source-line="16" data-uid="ent0004" id="entity_Workflow"><rect fill="#F1F1F1" height="48" rx="2.5" ry="2.5" style="stroke:#181818;stroke-width:0.5;" width="97.1055" x="360.5" y="41"/><ellipse cx="375.5" cy="57" fill="#ADD1B2" rx="11" ry="11" style="stroke:#181818;stroke-width:1;"/><path d="M378.4688,62.6406 Q377.8906,62.9375 377.25,63.0781 Q376.6094,63.2344 375.9063,63.2344 Q373.4063,63.2344 372.0781,61.5938 Q370.7656,59.9375 370.7656,56.8125 Q370.7656,53.6875 372.0781,52.0313 Q373.4063,50.375 375.9063,50.375 Q376.6094,50.375 377.25,50.5313 Q377.9063,50.6875 378.4688,50.9844 L378.4688,53.7031 Q377.8438,53.125 377.25,52.8594 Q376.6563,52.5781 376.0313,52.5781 Q374.6875,52.5781 374,53.6563 Q373.3125,54.7188 373.3125,56.8125 Q373.3125,58.9063 374,59.9844 Q374.6875,61.0469 376.0313,61.0469 Q376.6563,61.0469 377.25,60.7813 Q377.8438,60.5 378.4688,59.9219 L378.4688,62.6406 Z " fill="#000000"/><text fill="#000000" font-family="sans-serif" font-size="14" lengthAdjust="spacing" textLength="65.1055" x="389.5" y="61.8467">Workflow</text><line style="stroke:#181818;stroke-width:0.5;" x1="361.5" x2="456.6055" y1="73" y2="73"/><line style="stroke:#181818;stroke-width:0.5;" x1="361.5" x2="456.6055" y1="81" y2="81"/></g><!--class CommandLineTool_ml4floods_cli--><g class="entity" data-entity="CommandLineTool_ml4floods_cli" data-source-line="59" data-uid="ent0007" id="entity_CommandLineTool_ml4floods_cli"><rect fill="#F1F1F1" height="390.2344" rx="2.5" ry="2.5" style="stroke:#181818;stroke-width:0.5;" width="254.7646" x="595.5" y="685"/><ellipse cx="668.5859" cy="701" fill="#ADD1B2" rx="11" ry="11" style="stroke:#181818;stroke-width:1;"/><path d="M671.5547,706.6406 Q670.9766,706.9375 670.3359,707.0781 Q669.6953,707.2344 668.9922,707.2344 Q666.4922,707.2344 665.1641,705.5938 Q663.8516,703.9375 663.8516,700.8125 Q663.8516,697.6875 665.1641,696.0313 Q666.4922,694.375 668.9922,694.375 Q669.6953,694.375 670.3359,694.5313 Q670.9922,694.6875 671.5547,694.9844 L671.5547,697.7031 Q670.9297,697.125 670.3359,696.8594 Q669.7422,696.5781 669.1172,696.5781 Q667.7734,696.5781 667.0859,697.6563 Q666.3984,698.7188 666.3984,700.8125 Q666.3984,702.9063 667.0859,703.9844 Q667.7734,705.0469 669.1172,705.0469 Q669.7422,705.0469 670.3359,704.7813 Q670.9297,704.5 671.5547,703.9219 L671.5547,706.6406 Z " fill="#000000"/><ellipse cx="694.0859" cy="700.5" fill="#84BE84" rx="3" ry="3" style="stroke:#038048;stroke-width:1;"/><text fill="#000000" font-family="sans-serif" font-size="14" lengthAdjust="spacing" textLength="89.0928" x="700.0859" y="705.8467">ml4floods-cli</text><line style="stroke:#181818;stroke-width:0.5;" x1="596.5" x2="849.2646" y1="717" y2="717"/><text fill="#000000" font-family="sans-serif" font-size="14" lengthAdjust="spacing" textLength="4.4502" x="615.5" y="754.292">&#160;</text><text fill="#000000" font-family="sans-serif" font-size="14" lengthAdjust="spacing" textLength="4.4502" x="615.5" y="770.5889">&#160;</text><ellipse cx="606.5" cy="783.5391" fill="none" rx="3" ry="3" style="stroke:#038048;stroke-width:1;"/><text fill="#000000" font-family="sans-serif" font-size="14" lengthAdjust="spacing" textLength="123.9971" x="615.5" y="786.8857">input_item: string</text><text fill="#000000" font-family="sans-serif" font-size="14" lengthAdjust="spacing" textLength="4.4502" x="615.5" y="803.1826">&#160;</text><text fill="#000000" font-family="sans-serif" font-size="14" lengthAdjust="spacing" textLength="4.4502" x="615.5" y="819.4795">&#160;</text><text fill="#000000" font-family="sans-serif" font-size="14" lengthAdjust="spacing" textLength="4.4502" x="615.5" y="835.7764">&#160;</text><ellipse cx="606.5" cy="848.7266" fill="none" rx="3" ry="3" style="stroke:#038048;stroke-width:1;"/><text fill="#000000" font-family="sans-serif" font-size="14" lengthAdjust="spacing" textLength="207.9971" x="615.5" y="852.0732">water_threshold: [ null, float ]</text><text fill="#000000" font-family="sans-serif" font-size="14" lengthAdjust="spacing" textLength="4.4502" x="615.5" y="868.3701">&#160;</text><text fill="#000000" font-family="sans-serif" font-size="14" lengthAdjust="spacing" textLength="4.4502" x="615.5" y="884.667">&#160;</text><text fill="#000000" font-family="sans-serif" font-size="14" lengthAdjust="spacing" textLength="4.4502" x="615.5" y="900.9639">&#160;</text><ellipse cx="606.5" cy="913.9141" fill="none" rx="3" ry="3" style="stroke:#038048;stroke-width:1;"/><text fill="#000000" font-family="sans-serif" font-size="14" lengthAdjust="spacing" textLength="228.7646" x="615.5" y="917.2607">brightness_threshold: [ null, int ]</text><text fill="#000000" font-family="sans-serif" font-size="14" lengthAdjust="spacing" textLength="4.4502" x="615.5" y="933.5576">&#160;</text><text fill="#000000" font-family="sans-serif" font-size="14" lengthAdjust="spacing" textLength="4.4502" x="615.5" y="949.8545">&#160;</text><text fill="#000000" font-family="sans-serif" font-size="14" lengthAdjust="spacing" textLength="4.4502" x="615.5" y="966.1514">&#160;</text><line style="stroke:#181818;stroke-width:0.5;" x1="596.5" x2="701.1099" y1="733.1484" y2="733.1484"/><text fill="#000000" font-family="sans-serif" font-size="14" lengthAdjust="spacing" textLength="43.5449" x="701.1099" y="737.4951">Inputs</text><line style="stroke:#181818;stroke-width:0.5;" x1="744.6548" x2="849.2646" y1="733.1484" y2="733.1484"/><text fill="#000000" font-family="sans-serif" font-size="14" lengthAdjust="spacing" textLength="4.4502" x="615.5" y="1002.7451">&#160;</text><ellipse cx="606.5" cy="1015.6953" fill="none" rx="3" ry="3" style="stroke:#038048;stroke-width:1;"/><text fill="#000000" font-family="sans-serif" font-size="14" lengthAdjust="spacing" textLength="192.0488" x="615.5" y="1019.042">flood-delineation: Directory</text><text fill="#000000" font-family="sans-serif" font-size="14" lengthAdjust="spacing" textLength="4.4502" x="615.5" y="1035.3389">&#160;</text><text fill="#000000" font-family="sans-serif" font-size="14" lengthAdjust="spacing" textLength="4.4502" x="615.5" y="1051.6357">&#160;</text><text fill="#000000" font-family="sans-serif" font-size="14" lengthAdjust="spacing" textLength="4.4502" x="615.5" y="1067.9326">&#160;</text><line style="stroke:#181818;stroke-width:0.5;" x1="596.5" x2="694.9199" y1="981.6016" y2="981.6016"/><text fill="#000000" font-family="sans-serif" font-size="14" lengthAdjust="spacing" textLength="55.9248" x="694.9199" y="985.9482">Outputs</text><line style="stroke:#181818;stroke-width:0.5;" x1="750.8447" x2="849.2646" y1="981.6016" y2="981.6016"/></g><!--class CommandLineTool--><g class="entity" data-entity="CommandLineTool" data-source-line="60" data-uid="ent0008" id="entity_CommandLineTool"><rect fill="#F1F1F1" height="48" rx="2.5" ry="2.5" style="stroke:#181818;stroke-width:0.5;" width="162.7031" x="641.5" y="363"/><ellipse cx="656.5" cy="379" fill="#ADD1B2" rx="11" ry="11" style="stroke:#181818;stroke-width:1;"/><path d="M659.4688,384.6406 Q658.8906,384.9375 658.25,385.0781 Q657.6094,385.2344 656.9063,385.2344 Q654.4063,385.2344 653.0781,383.5938 Q651.7656,381.9375 651.7656,378.8125 Q651.7656,375.6875 653.0781,374.0313 Q654.4063,372.375 656.9063,372.375 Q657.6094,372.375 658.25,372.5313 Q658.9063,372.6875 659.4688,372.9844 L659.4688,375.7031 Q658.8438,375.125 658.25,374.8594 Q657.6563,374.5781 657.0313,374.5781 Q655.6875,374.5781 655,375.6563 Q654.3125,376.7188 654.3125,378.8125 Q654.3125,380.9063 655,381.9844 Q655.6875,383.0469 657.0313,383.0469 Q657.6563,383.0469 658.25,382.7813 Q658.8438,382.5 659.4688,381.9219 L659.4688,384.6406 Z " fill="#000000"/><text fill="#000000" font-family="sans-serif" font-size="14" lengthAdjust="spacing" textLength="130.7031" x="670.5" y="383.8467">CommandLineTool</text><line style="stroke:#181818;stroke-width:0.5;" x1="642.5" x2="803.2031" y1="395" y2="395"/><line style="stroke:#181818;stroke-width:0.5;" x1="642.5" x2="803.2031" y1="403" y2="403"/></g><!--class InlineJavascriptRequirement--><g class="entity" data-entity="InlineJavascriptRequirement" data-source-line="101" data-uid="ent0012" id="entity_InlineJavascriptRequirement"><rect fill="#F1F1F1" height="48" rx="2.5" ry="2.5" style="stroke:#181818;stroke-width:0.5;" width="229.8252" x="309" y="856"/><ellipse cx="324" cy="872" fill="#ADD1B2" rx="11" ry="11" style="stroke:#181818;stroke-width:1;"/><path d="M326.9688,877.6406 Q326.3906,877.9375 325.75,878.0781 Q325.1094,878.2344 324.4063,878.2344 Q321.9063,878.2344 320.5781,876.5938 Q319.2656,874.9375 319.2656,871.8125 Q319.2656,868.6875 320.5781,867.0313 Q321.9063,865.375 324.4063,865.375 Q325.1094,865.375 325.75,865.5313 Q326.4063,865.6875 326.9688,865.9844 L326.9688,868.7031 Q326.3438,868.125 325.75,867.8594 Q325.1563,867.5781 324.5313,867.5781 Q323.1875,867.5781 322.5,868.6563 Q321.8125,869.7188 321.8125,871.8125 Q321.8125,873.9063 322.5,874.9844 Q323.1875,876.0469 324.5313,876.0469 Q325.1563,876.0469 325.75,875.7813 Q326.3438,875.5 326.9688,874.9219 L326.9688,877.6406 Z " fill="#000000"/><text fill="#000000" font-family="sans-serif" font-size="14" lengthAdjust="spacing" textLength="197.8252" x="338" y="876.8467">InlineJavascriptRequirement</text><line style="stroke:#181818;stroke-width:0.5;" x1="310" x2="537.8252" y1="888" y2="888"/><line style="stroke:#181818;stroke-width:0.5;" x1="310" x2="537.8252" y1="896" y2="896"/></g><!--class ScatterFeatureRequirement--><g class="entity" data-entity="ScatterFeatureRequirement" data-source-line="106" data-uid="ent0014" id="entity_ScatterFeatureRequirement"><rect fill="#F1F1F1" height="48" rx="2.5" ry="2.5" style="stroke:#181818;stroke-width:0.5;" width="227.46" x="46.5" y="856"/><ellipse cx="61.5" cy="872" fill="#ADD1B2" rx="11" ry="11" style="stroke:#181818;stroke-width:1;"/><path d="M64.4688,877.6406 Q63.8906,877.9375 63.25,878.0781 Q62.6094,878.2344 61.9063,878.2344 Q59.4063,878.2344 58.0781,876.5938 Q56.7656,874.9375 56.7656,871.8125 Q56.7656,868.6875 58.0781,867.0313 Q59.4063,865.375 61.9063,865.375 Q62.6094,865.375 63.25,865.5313 Q63.9063,865.6875 64.4688,865.9844 L64.4688,868.7031 Q63.8438,868.125 63.25,867.8594 Q62.6563,867.5781 62.0313,867.5781 Q60.6875,867.5781 60,868.6563 Q59.3125,869.7188 59.3125,871.8125 Q59.3125,873.9063 60,874.9844 Q60.6875,876.0469 62.0313,876.0469 Q62.6563,876.0469 63.25,875.7813 Q63.8438,875.5 64.4688,874.9219 L64.4688,877.6406 Z " fill="#000000"/><text fill="#000000" font-family="sans-serif" font-size="14" lengthAdjust="spacing" textLength="195.46" x="75.5" y="876.8467">ScatterFeatureRequirement</text><line style="stroke:#181818;stroke-width:0.5;" x1="47.5" x2="272.96" y1="888" y2="888"/><line style="stroke:#181818;stroke-width:0.5;" x1="47.5" x2="272.96" y1="896" y2="896"/></g><!--reverse link Workflow to Workflow_ml4floods--><g class="link" data-entity-1="Workflow" data-entity-2="Workflow_ml4floods" data-source-line="16" data-uid="lnk5" id="link_Workflow_Workflow_ml4floods"><path d="M409,107.01 C409,121.85 409,124.82 409,148.84" fill="none" id="Workflow-backto-Workflow_ml4floods" style="stroke:#181818;stroke-width:1;"/><polygon fill="none" points="409,89.01,403,107.01,415,107.01,409,89.01" style="stroke:#181818;stroke-width:1;"/></g><!--reverse link CommandLineTool to CommandLineTool_ml4floods_cli--><g class="link" data-entity-1="CommandLineTool" data-entity-2="CommandLineTool_ml4floods_cli" data-source-line="60" data-uid="lnk9" id="link_CommandLineTool_CommandLineTool_ml4floods_cli"><path d="M723,429.02 C723,478.08 723,579.08 723,684.79" fill="none" id="CommandLineTool-backto-CommandLineTool_ml4floods_cli" style="stroke:#181818;stroke-width:1;"/><polygon fill="none" points="723,411.02,717,429.02,729,429.02,723,411.02" style="stroke:#181818;stroke-width:1;"/></g><!--link Workflow_ml4floods to CommandLineTool_ml4floods_cli--><g class="link" data-entity-1="Workflow_ml4floods" data-entity-2="CommandLineTool_ml4floods_cli" data-source-line="91" data-uid="lnk10" id="link_Workflow_ml4floods_CommandLineTool_ml4floods_cli"><path codeLine="91" d="M560.71,625.23 C573.48,645.2 583.0677,660.1851 595.5877,679.7651" fill="none" id="Workflow_ml4floods-to-CommandLineTool_ml4floods_cli" style="stroke:#181818;stroke-width:1;"/><polygon fill="#181818" points="598.82,684.82,597.3416,675.0827,596.1264,680.6075,590.6016,679.3924,598.82,684.82" style="stroke:#181818;stroke-width:1;"/></g><!--link Workflow_ml4floods to InlineJavascriptRequirement--><g class="link" data-entity-1="Workflow_ml4floods" data-entity-2="InlineJavascriptRequirement" data-source-line="102" data-uid="lnk13" id="link_Workflow_ml4floods_InlineJavascriptRequirement"><path codeLine="102" d="M416.25,625.23 C419.1,718.58 421.8165,807.5228 423.1165,850.0028" fill="none" id="Workflow_ml4floods-to-InlineJavascriptRequirement" style="stroke:#181818;stroke-width:1;"/><polygon fill="#181818" points="423.3,856,427.0228,846.8819,423.1471,851.0023,419.0266,847.1266,423.3,856" style="stroke:#181818;stroke-width:1;"/></g><!--link Workflow_ml4floods to ScatterFeatureRequirement--><g class="link" data-entity-1="Workflow_ml4floods" data-entity-2="ScatterFeatureRequirement" data-source-line="107" data-uid="lnk15" id="link_Workflow_ml4floods_ScatterFeatureRequirement"><path codeLine="107" d="M288.69,625.23 C241.35,718.58 195.9235,808.1686 174.3835,850.6486" fill="none" id="Workflow_ml4floods-to-ScatterFeatureRequirement" style="stroke:#181818;stroke-width:1;"/><polygon fill="#181818" points="171.67,856,179.3078,849.7819,173.9312,851.5405,172.1726,846.164,171.67,856" style="stroke:#181818;stroke-width:1;"/></g><!--SRC=[nPHDJ-Cm48Rl_8fHBXowBY7D5YdISW4XWLWXBKWS48fCCaqj_17i2GMj-E_hDf0skqcWom6VxCdhr_FnA7kxEx0Bnu8NbYieKAFbX3dSFKEsa55PAGcFuNWIZSEba8H2HroL2KHXD6NXFekYg_rf4a-IS3gEuyYhzdRU5lXLykoU5mZ1p_FuH1gJEn1wXXPrXZ0p5cRB8E0JeIRmxa9n4aO7yBis66MIEmU1al5AwWBW3gwDlVV7HTg4Qujy_SaRmEjAKpZLPKNExvfWisaTHZuzhsI2K2NWo0fTT2lxxYzy1osZkKKtDp9Fu0Pq9UMtPQMSu1P-G3W-sCxppefYJXgTwp8MkhQTV0_37j_DLbnKrDkBKJqFbgCK6bUJI3mV5ZCozhd3RzFuah1isRO4R3tu19gnfPaK0xrugLzg1mTFwrY3tYglO8E7zeFTp_S6Eg5alemLc4T6AQxpSz-zAsDasYgqOVGlrQTGJJ-9QjgFwlz2clP1-YLqRi_GFmnq_6uOEnmUzY3LVQZ-meVArwFypt20sBTDJU6fNdRZZ3zobrbHqeP7e-mfu2DNFp3xEe_BZ9FdwSGFfhAuHHRlNtodXIz_0000]--></g></svg>